<svg xmlns="http://www.w3.org/2000/svg" viewBox="0 0 741.1 126.1" width="741" height="126" fill="#fff"><path d="M159.3 126V0h18v126h-18zM129.5 0L67.3 108 20.8 27.4H0L57 126h20.7L150.4 0h-21zm482 126L674 18l46.4 80.7h21L684 0h-20.8l-72.7 126h21zm-299-108c-8.2-11-21.3-18-36-18h-81.2v126h18V90h64c14.4-.3 27.2-7.4 35.3-18.2 5.6-7.5 9-16.8 9-27 0-10-3.5-19.2-9-26.7zm-35.8 54h-63.3V18h63.2c15 .2 27 12 27 27 0 14.8-12 26.8-27 27zm302 0c5.7-7.6 9-17 9-27s-3.3-19.4-9-27c-8-11-21.2-18-36-18h-81v126h18V90h64c.5 0 1.2 0 2-.2l21 36.3h20.6l-23.8-41c6-3 11.3-7.6 15.3-13zm-99 0V18h63c15 .2 27 12 27 27 0 14.8-12 26.8-26.7 27h-63.2zm248-72h2.5l4 6.4 4.2-6.4h2.5v13.5h-2.6V3.8l-4.3 6.4L730 4v9.4h-2.4V0h.3zm-9 2.2H714V0h11.7v2.2H721v11.3h-2.4V2.2zM353 71.8h90.6v-18H353V18h90.6V0H335v126h108.6v-18H353V71.8z"/></svg>